<?xml version="1.0" ?>
<!-- Uploaded to: SVG Repo, www.svgrepo.com, Generator: SVG Repo Mixer Tools -->
<svg width="800px" height="800px" viewBox="0 0 24 24" xmlns="http://www.w3.org/2000/svg">
<defs>
<style>.cls-1{fill:#56b54e;}.cls-2{fill:#60cc5a;}.cls-3{fill:#6c2e7c;}</style>
</defs>
<g id="Icons">
<path class="cls-1" d="M16.22,20.7,12,23,7.78,20.7A11.009,11.009,0,0,1,2.17,9.37l.14-.92L3,4c6,0,9-3,9-3s3,3,9,3l.69,4.45.14.92A11.009,11.009,0,0,1,16.22,20.7Z"/>
<path class="cls-2" d="M21.69,8.45a11.032,11.032,0,0,1-5.47,7.25l-3.263,1.778a2,2,0,0,1-1.914,0L7.78,15.7A11.032,11.032,0,0,1,2.31,8.45L3,4c6,0,9-3,9-3s3,3,9,3Z"/>
</g>
<g data-name="Layer 4" id="Layer_4">
<path class="cls-3" d="M22.814,9.216l-.826-5.368A1,1,0,0,0,21,3C15.533,3,12.731.316,12.707.293a1,1,0,0,0-1.41,0C11.269.316,8.467,3,3,3a1,1,0,0,0-.988.848L1.186,9.216A12.033,12.033,0,0,0,7.3,21.576l4.22,2.3a1,1,0,0,0,.958,0l4.22-2.3A12.033,12.033,0,0,0,22.814,9.216Zm-7.072,10.6L12,21.861,8.258,19.82a10.029,10.029,0,0,1-5.1-10.3l.7-4.541A14.717,14.717,0,0,0,12,2.3,14.717,14.717,0,0,0,20.139,4.98l.7,4.54A10.029,10.029,0,0,1,15.742,19.82Z"/>
<path class="cls-3" d="M15.293,8.293,10,13.586,8.707,12.293a1,1,0,1,0-1.414,1.414l2,2a1,1,0,0,0,1.414,0l6-6a1,1,0,0,0-1.414-1.414Z"/>
</g>
</svg>